<svg width="100" height="100" viewBox="0 0 100 100" fill="none" xmlns="http://www.w3.org/2000/svg">
<g clip-path="url(#clip0_288_690)">
<path d="M100 0H0V100H100V0Z" fill="#F97316"/>
<path d="M29.4259 57.9278C25.3728 58.398 21.6209 54.7592 21.0466 49.8015C20.3004 43.3652 22.8998 37.0661 26.9535 36.5967C31.0066 36.1266 35.0324 42.132 35.7243 48.1002C36.2986 53.0579 33.4798 57.4578 29.4259 57.9278Z" fill="#FAFAFA"/>
<path d="M61.1746 79.1326C55.4043 78.971 53.2203 76.3843 49.5199 76.2799C45.8186 76.1762 43.4939 78.6364 37.7238 78.4742C30.1701 78.2614 24.8285 68.7269 31.8525 62.7191C40.5814 55.2541 43.276 45.6318 50.3749 45.8315C57.4745 46.0314 59.6245 55.789 67.9206 63.7328C74.596 70.1253 68.7276 79.3452 61.1746 79.1326Z" fill="#FAFAFA"/>
<path d="M52.5788 33.3223C53.2593 27.3534 57.2744 21.3403 61.3278 21.802C65.3825 22.2646 67.9935 28.5585 67.2596 34.9958C66.6942 39.9551 62.9496 43.6006 58.8956 43.1381C54.8415 42.6763 52.0134 38.2815 52.5788 33.3223Z" fill="#FAFAFA"/>
<path d="M34.1248 34.0646C33.7539 27.5965 36.7142 21.4587 40.7881 21.2255C44.8614 20.9915 48.5324 27.2205 48.8765 33.2182C49.1628 38.2013 46.0924 42.43 42.0191 42.6639C37.9451 42.8979 34.4111 39.0478 34.1248 34.0646Z" fill="#FAFAFA"/>
<path d="M70.6123 59.0849C66.5915 58.3883 64.0235 53.8365 64.8752 48.9186C65.9011 42.9995 70.2587 37.2295 74.2785 37.9267C78.2992 38.6233 80.5411 45.0579 79.4349 51.4416C78.5825 56.3594 74.6323 59.7813 70.6123 59.0849Z" fill="#FAFAFA"/>
</g>
<defs>
<clipPath id="clip0_288_690">
<rect width="100" height="100" rx="22" fill="white"/>
</clipPath>
</defs>
</svg>
