<svg width="42" height="42" viewBox="0 0 42 42" fill="none" xmlns="http://www.w3.org/2000/svg">
<rect width="42" height="42" rx="9" fill="#C2410C"/>
<path d="M16.667 11.25H17.4795C17.4795 10.9504 17.3146 10.675 17.0504 10.5336C16.7862 10.3923 16.4656 10.4077 16.2163 10.574L16.667 11.25ZM23.167 11.25L23.6177 10.574C23.3684 10.4077 23.0478 10.3923 22.7836 10.5336C22.5194 10.675 22.3545 10.9504 22.3545 11.25H23.167ZM15.8545 12.875C15.8545 13.3237 16.2183 13.6875 16.667 13.6875C17.1157 13.6875 17.4795 13.3237 17.4795 12.875H15.8545ZM22.3545 12.875C22.3545 13.3237 22.7183 13.6875 23.167 13.6875C23.6157 13.6875 23.9795 13.3237 23.9795 12.875H22.3545ZM25.6045 15.156V18.8333H27.2295V15.156H25.6045ZM22.0837 22.3542H17.7503V23.9792H22.0837V22.3542ZM14.2295 18.8333V15.156H12.6045V18.8333H14.2295ZM15.3149 13.1279L17.1177 11.926L16.2163 10.574L14.4135 11.7758L15.3149 13.1279ZM25.4204 11.7758L23.6177 10.574L22.7163 11.926L24.5191 13.1279L25.4204 11.7758ZM15.8545 11.25V12.875H17.4795V11.25H15.8545ZM22.3545 11.25V12.875H23.9795V11.25H22.3545ZM17.7503 22.3542C15.8058 22.3542 14.2295 20.7778 14.2295 18.8333H12.6045C12.6045 21.6754 14.9084 23.9792 17.7503 23.9792V22.3542ZM25.6045 18.8333C25.6045 20.7778 24.0281 22.3542 22.0837 22.3542V23.9792C24.9257 23.9792 27.2295 21.6754 27.2295 18.8333H25.6045ZM27.2295 15.156C27.2295 13.7977 26.5507 12.5293 25.4204 11.7758L24.5191 13.1279C25.1972 13.58 25.6045 14.341 25.6045 15.156H27.2295ZM14.2295 15.156C14.2295 14.341 14.6368 13.58 15.3149 13.1279L14.4135 11.7758C13.2833 12.5293 12.6045 13.7977 12.6045 15.156H14.2295ZM19.1045 23.1667V29.6667H20.7295V23.1667H19.1045ZM21.0003 31.5625H23.167V29.9375H21.0003V31.5625ZM25.0628 29.6667V27.8939H23.4378V29.6667H25.0628ZM25.3337 27.6231H26.417V25.9981H25.3337V27.6231ZM25.0628 27.8939C25.0628 27.7444 25.1841 27.6231 25.3337 27.6231V25.9981C24.2866 25.9981 23.4378 26.8469 23.4378 27.8939H25.0628ZM23.167 31.5625C24.214 31.5625 25.0628 30.7137 25.0628 29.6667H23.4378C23.4378 29.8163 23.3166 29.9375 23.167 29.9375V31.5625ZM19.1045 29.6667C19.1045 30.7137 19.9533 31.5625 21.0003 31.5625V29.9375C20.8507 29.9375 20.7295 29.8163 20.7295 29.6667H19.1045ZM28.8545 26.8101C28.8545 27.2589 28.4907 27.6226 28.042 27.6226V29.2476C29.3881 29.2476 30.4795 28.1563 30.4795 26.8101H28.8545ZM28.042 27.6226C27.593 27.6226 27.2295 27.2591 27.2295 26.8106H25.6045C25.6045 28.1572 26.6962 29.2476 28.042 29.2476V27.6226ZM27.2295 26.8106C27.2295 26.3615 27.5936 25.9976 28.042 25.9976V24.3726C26.6955 24.3726 25.6045 25.4647 25.6045 26.8106H27.2295ZM28.042 25.9976C28.4907 25.9976 28.8545 26.3614 28.8545 26.8101H30.4795C30.4795 25.4639 29.3881 24.3726 28.042 24.3726V25.9976Z" fill="#FAFAFA"/>
</svg>
