<svg width="42" height="42" viewBox="0 0 42 42" fill="none" xmlns="http://www.w3.org/2000/svg">
<rect width="42" height="42" rx="9" fill="#F9B116"/>
<path d="M23.1668 10.1667H14.5002C13.9255 10.1667 13.3744 10.395 12.9681 10.8013C12.5618 11.2076 12.3335 11.7587 12.3335 12.3334V29.6667C12.3335 30.2413 12.5618 30.7924 12.9681 31.1988C13.3744 31.6051 13.9255 31.8334 14.5002 31.8334H27.5002C28.0748 31.8334 28.6259 31.6051 29.0322 31.1988C29.4386 30.7924 29.6668 30.2413 29.6668 29.6667V16.6667M23.1668 10.1667L29.6668 16.6667M23.1668 10.1667L23.1668 16.6667H29.6668M25.3335 22.0834H16.6668M25.3335 26.4167H16.6668M18.8335 17.75H16.6668" stroke="#FAFAFA" stroke-width="1.6" stroke-linecap="round" stroke-linejoin="round"/>
</svg>
