<svg width="42" height="42" viewBox="0 0 42 42" fill="none" xmlns="http://www.w3.org/2000/svg">
<rect width="42" height="42" rx="9" fill="#49AA35"/>
<path d="M21.0002 21C21.596 21 22.1061 20.7879 22.5304 20.3636C22.9547 19.9393 23.1668 19.4292 23.1668 18.8334C23.1668 18.2375 22.9547 17.7275 22.5304 17.3031C22.1061 16.8788 21.596 16.6667 21.0002 16.6667C20.4043 16.6667 19.8943 16.8788 19.47 17.3031C19.0456 17.7275 18.8335 18.2375 18.8335 18.8334C18.8335 19.4292 19.0456 19.9393 19.47 20.3636C19.8943 20.7879 20.4043 21 21.0002 21ZM21.0002 28.9625C23.2029 26.9403 24.837 25.1031 25.9022 23.4511C26.9675 21.799 27.5002 20.332 27.5002 19.05C27.5002 17.082 26.8727 15.4705 25.6179 14.2156C24.363 12.9608 22.8238 12.3334 21.0002 12.3334C19.1766 12.3334 17.6373 12.9608 16.3825 14.2156C15.1276 15.4705 14.5002 17.082 14.5002 19.05C14.5002 20.332 15.0328 21.799 16.0981 23.4511C17.1634 25.1031 18.7974 26.9403 21.0002 28.9625ZM21.0002 31.8334C18.0932 29.3597 15.922 27.0622 14.4866 24.9406C13.0512 22.8191 12.3335 20.8556 12.3335 19.05C12.3335 16.3417 13.2047 14.184 14.947 12.5771C16.6894 10.9702 18.7071 10.1667 21.0002 10.1667C23.2932 10.1667 25.3109 10.9702 27.0533 12.5771C28.7957 14.184 29.6668 16.3417 29.6668 19.05C29.6668 20.8556 28.9491 22.8191 27.5137 24.9406C26.0783 27.0622 23.9071 29.3597 21.0002 31.8334Z" fill="#FAFAFA"/>
</svg>
