<svg width="44" height="44" viewBox="0 0 44 44" fill="none" xmlns="http://www.w3.org/2000/svg">
<g clip-path="url(#clip0_288_722)">
<path d="M44 0H0V44H44V0Z" fill="#F97316"/>
<path d="M13.7348 25.1711C12.1061 25.3601 10.5983 23.8978 10.3676 21.9055C10.0677 19.319 11.1123 16.7876 12.7413 16.599C14.3701 16.41 15.9879 18.8234 16.2659 21.2218C16.4967 23.2141 15.3639 24.9822 13.7348 25.1711Z" fill="#FAFAFA"/>
<path d="M26.4935 33.6925C24.1747 33.6276 23.2971 32.5881 21.81 32.5462C20.3226 32.5045 19.3884 33.4932 17.0696 33.428C14.0341 33.3425 11.8876 29.5109 14.7102 27.0966C18.218 24.0967 19.3009 20.2298 22.1536 20.3101C25.0067 20.3904 25.8707 24.3116 29.2045 27.5039C31.8871 30.0728 29.5288 33.778 26.4935 33.6925Z" fill="#FAFAFA"/>
<path d="M23.0395 15.2831C23.313 12.8844 24.9265 10.468 26.5554 10.6535C28.1848 10.8394 29.2341 13.3687 28.9391 15.9556C28.7119 17.9485 27.2071 19.4136 25.578 19.2277C23.9488 19.0421 22.8123 17.276 23.0395 15.2831Z" fill="#FAFAFA"/>
<path d="M15.6233 15.5814C15.4743 12.9821 16.6639 10.5155 18.301 10.4218C19.9379 10.3278 21.4131 12.831 21.5514 15.2413C21.6664 17.2438 20.4326 18.9431 18.7957 19.0372C17.1585 19.1312 15.7383 17.584 15.6233 15.5814Z" fill="#FAFAFA"/>
<path d="M30.2864 25.6361C28.6706 25.3562 27.6386 23.527 27.9809 21.5507C28.3931 19.172 30.1443 16.8532 31.7597 17.1334C33.3755 17.4133 34.2764 19.9992 33.8318 22.5646C33.4893 24.5408 31.9018 25.916 30.2864 25.6361Z" fill="#FAFAFA"/>
</g>
<defs>
<clipPath id="clip0_288_722">
<rect width="44" height="44" rx="15" fill="white"/>
</clipPath>
</defs>
</svg>
