<svg width="18" height="18" viewBox="0 0 18 18" fill="none" xmlns="http://www.w3.org/2000/svg">
<path d="M4.49902 1.5C4.49902 1.88463 4.86652 2.25 5.24902 2.25H12.749C13.1337 2.25 13.499 1.8825 13.499 1.5H14.999C14.999 2.74264 13.9917 3.75 12.749 3.75H9.74899L9.74974 5.29651C12.7092 5.6659 14.999 8.19052 14.999 11.25V15.75C14.999 16.1642 14.6632 16.5 14.249 16.5H3.74902C3.33481 16.5 2.99902 16.1642 2.99902 15.75V11.25C2.99902 8.1903 5.28931 5.66547 8.24906 5.29642L8.24899 3.75H5.24902C4.00402 3.75 2.99902 2.745 2.99902 1.5H4.49902ZM8.99899 6.75C6.57022 6.75 4.49902 8.82 4.49902 11.25V15H13.499V11.25C13.499 8.8212 11.4278 6.75 8.99899 6.75ZM8.99899 8.25C9.55541 8.25 10.0764 8.40142 10.523 8.66535L8.46866 10.7197C8.17579 11.0125 8.17579 11.4874 8.46866 11.7803C8.73904 12.0507 9.16451 12.0715 9.45866 11.8427L9.52939 11.7803L11.5836 9.726C11.8476 10.1726 11.999 10.6936 11.999 11.25C11.999 12.9068 10.6559 14.25 8.99899 14.25C7.34217 14.25 5.99902 12.9068 5.99902 11.25C5.99902 9.59317 7.34217 8.25 8.99899 8.25Z" fill="#F97316"/>
</svg>
