<svg width="29" height="29" viewBox="0 0 29 29" fill="none" xmlns="http://www.w3.org/2000/svg">
<path d="M4.8335 22.9583V20.5417H7.25016V12.0833C7.25016 10.4118 7.75363 8.9316 8.76058 7.64271C9.76752 6.33368 11.0766 5.47778 12.6877 5.075V4.22917C12.6877 3.7257 12.8588 3.30278 13.2012 2.96042C13.5637 2.59792 13.9967 2.41667 14.5002 2.41667C15.0036 2.41667 15.4266 2.59792 15.7689 2.96042C16.1314 3.30278 16.3127 3.7257 16.3127 4.22917V5.075C17.9238 5.47778 19.2328 6.33368 20.2397 7.64271C21.2467 8.9316 21.7502 10.4118 21.7502 12.0833V20.5417H24.1668V22.9583H4.8335ZM14.5002 26.5833C13.8356 26.5833 13.2616 26.3517 12.7783 25.8885C12.3151 25.4052 12.0835 24.8313 12.0835 24.1667H16.9168C16.9168 24.8313 16.6752 25.4052 16.1918 25.8885C15.7286 26.3517 15.1647 26.5833 14.5002 26.5833ZM9.66683 20.5417H19.3335V12.0833C19.3335 10.7542 18.8602 9.61632 17.9137 8.6698C16.9672 7.72327 15.8293 7.25 14.5002 7.25C13.171 7.25 12.0331 7.72327 11.0866 8.6698C10.1401 9.61632 9.66683 10.7542 9.66683 12.0833V20.5417Z" fill="#1D1B20"/>
</svg>
